<svg xmlns="http://www.w3.org/2000/svg" xmlns:xlink="http://www.w3.org/1999/xlink" width="300" zoomAndPan="magnify" viewBox="0 0 224.87999 44.999999" height="60" preserveAspectRatio="xMidYMid meet" version="1.0"><defs><g/><clipPath id="540d66fdb8"><path d="M 0 0.0117188 L 224.761719 0.0117188 L 224.761719 44.988281 L 0 44.988281 Z M 0 0.0117188 " clip-rule="nonzero"/></clipPath></defs><g clip-path="url(#540d66fdb8)"><path fill="#ffffff" d="M 0 0.0117188 L 224.878906 0.0117188 L 224.878906 44.988281 L 0 44.988281 Z M 0 0.0117188 " fill-opacity="1" fill-rule="nonzero"/><path fill="#ffffff" d="M 0 0.0117188 L 224.878906 0.0117188 L 224.878906 44.988281 L 0 44.988281 Z M 0 0.0117188 " fill-opacity="1" fill-rule="nonzero"/></g><g fill="#000000" fill-opacity="1"><g transform="translate(65.337488, 28.754392)"><g><path d="M 7.96875 -5.5 C 7.5 -6.71875 6.789062 -8.773438 5.84375 -11.671875 C 5.71875 -11.359375 5.398438 -10.484375 4.890625 -9.046875 C 4.390625 -7.609375 3.945312 -6.425781 3.5625 -5.5 C 4.632812 -5.46875 5.535156 -5.453125 6.265625 -5.453125 C 6.984375 -5.453125 7.550781 -5.46875 7.96875 -5.5 Z M 8.390625 -4.28125 C 6.859375 -4.257812 5.925781 -4.25 5.59375 -4.25 C 5.269531 -4.25 4.425781 -4.257812 3.0625 -4.28125 C 2.144531 -1.976562 1.566406 -0.40625 1.328125 0.4375 C 0.878906 0.34375 0.5625 0.234375 0.375 0.109375 C 0.1875 -0.015625 0.09375 -0.171875 0.09375 -0.359375 C 0.09375 -0.535156 0.390625 -1.3125 0.984375 -2.6875 C 2.953125 -7.320312 4.3125 -10.941406 5.0625 -13.546875 C 5.320312 -13.585938 5.617188 -13.609375 5.953125 -13.609375 C 6.273438 -13.609375 6.503906 -13.546875 6.640625 -13.421875 C 6.785156 -13.304688 6.929688 -13.003906 7.078125 -12.515625 C 7.941406 -9.742188 8.804688 -7.222656 9.671875 -4.953125 C 10.546875 -2.691406 11.210938 -1.109375 11.671875 -0.203125 C 11.285156 0.0664062 10.957031 0.203125 10.6875 0.203125 C 10.25 0.203125 9.957031 0.0195312 9.8125 -0.34375 C 9.550781 -1.019531 9.078125 -2.332031 8.390625 -4.28125 Z M 8.390625 -4.28125 "/></g></g></g><g fill="#99cc33" fill-opacity="1"><g transform="translate(75.6562, 28.754392)"><g><path d="M 1.453125 -1.109375 L 1.5 -4.734375 L 1.5 -8.84375 C 1.5 -10.769531 1.453125 -12.359375 1.359375 -13.609375 C 1.585938 -13.640625 1.863281 -13.65625 2.1875 -13.65625 C 2.863281 -13.65625 3.203125 -13.394531 3.203125 -12.875 C 3.203125 -12.800781 3.1875 -12.53125 3.15625 -12.0625 C 3.070312 -10.632812 3.03125 -9.375 3.03125 -8.28125 L 3.03125 -4.171875 C 3.03125 -2.316406 3.160156 -0.957031 3.421875 -0.09375 C 3.179688 0.0078125 2.863281 0.0625 2.46875 0.0625 C 2.0625 0.0625 1.789062 -0.0234375 1.65625 -0.203125 C 1.519531 -0.378906 1.453125 -0.679688 1.453125 -1.109375 Z M 1.453125 -1.109375 "/></g></g></g><path fill="#99cc33" d="M 85.765625 33.152344 L 85.765625 32.402344 L 86.515625 32.402344 L 86.515625 33.152344 M 85.765625 31.652344 L 85.765625 30.902344 L 86.515625 30.902344 L 86.515625 31.652344 M 85.765625 30.152344 L 85.765625 29.402344 L 86.515625 29.402344 L 86.515625 30.152344 M 85.765625 28.652344 L 85.765625 27.902344 L 86.515625 27.902344 L 86.515625 28.652344 M 85.765625 27.15625 L 85.765625 26.40625 L 86.515625 26.40625 L 86.515625 27.15625 M 85.765625 25.65625 L 85.765625 24.90625 L 86.515625 24.90625 L 86.515625 25.65625 M 85.765625 24.15625 L 85.765625 23.40625 L 86.515625 23.40625 L 86.515625 24.15625 M 85.765625 22.65625 L 85.765625 21.90625 L 86.515625 21.90625 L 86.515625 22.65625 M 85.765625 21.15625 L 85.765625 20.40625 L 86.515625 20.40625 L 86.515625 21.15625 M 85.765625 19.660156 L 85.765625 18.910156 L 86.515625 18.910156 L 86.515625 19.660156 M 85.765625 18.160156 L 85.765625 17.410156 L 86.515625 17.410156 L 86.515625 18.160156 M 85.765625 16.660156 L 85.765625 15.910156 L 86.515625 15.910156 L 86.515625 16.660156 M 85.765625 15.160156 L 85.765625 14.410156 L 86.515625 14.410156 L 86.515625 15.160156 M 85.765625 13.660156 L 85.765625 12.910156 L 86.515625 12.910156 L 86.515625 13.660156 " fill-opacity="1" fill-rule="nonzero"/><g fill="#000000" fill-opacity="1"><g transform="translate(88.929828, 27.321037)"><g><path d="M 1.296875 -1.078125 L 1.328125 -4.59375 C 1.328125 -6.476562 1.28125 -8.023438 1.1875 -9.234375 C 1.40625 -9.273438 1.632812 -9.296875 1.875 -9.296875 C 2.4375 -9.296875 2.71875 -9.046875 2.71875 -8.546875 C 2.71875 -8.515625 2.710938 -8.421875 2.703125 -8.265625 C 2.703125 -8.109375 2.703125 -7.96875 2.703125 -7.84375 C 2.960938 -8.25 3.316406 -8.613281 3.765625 -8.9375 C 4.210938 -9.269531 4.617188 -9.4375 4.984375 -9.4375 C 5.703125 -9.4375 6.0625 -9.175781 6.0625 -8.65625 C 6.0625 -8.40625 5.925781 -8.109375 5.65625 -7.765625 C 5.375 -8.015625 5.050781 -8.140625 4.6875 -8.140625 C 4.332031 -8.140625 3.96875 -7.992188 3.59375 -7.703125 C 3.21875 -7.410156 2.90625 -7.03125 2.65625 -6.5625 C 2.644531 -6.101562 2.640625 -5.117188 2.640625 -3.609375 C 2.640625 -2.097656 2.765625 -0.925781 3.015625 -0.09375 C 2.773438 0.0078125 2.492188 0.0625 2.171875 0.0625 C 1.847656 0.0625 1.617188 -0.0195312 1.484375 -0.1875 C 1.359375 -0.363281 1.296875 -0.660156 1.296875 -1.078125 Z M 1.296875 -1.078125 "/></g></g></g><g fill="#000000" fill-opacity="1"><g transform="translate(94.229114, 27.321037)"><g><path d="M 9.53125 -4.609375 C 9.53125 -3.148438 9.128906 -1.984375 8.328125 -1.109375 C 7.535156 -0.242188 6.5 0.1875 5.21875 0.1875 C 3.925781 0.1875 2.878906 -0.242188 2.078125 -1.109375 C 1.285156 -1.984375 0.890625 -3.148438 0.890625 -4.609375 C 0.890625 -6.054688 1.285156 -7.222656 2.078125 -8.109375 C 2.878906 -8.992188 3.925781 -9.4375 5.21875 -9.4375 C 6.5 -9.4375 7.535156 -8.992188 8.328125 -8.109375 C 9.128906 -7.222656 9.53125 -6.054688 9.53125 -4.609375 Z M 5.21875 -0.90625 C 6.132812 -0.90625 6.847656 -1.21875 7.359375 -1.84375 C 7.878906 -2.46875 8.140625 -3.320312 8.140625 -4.40625 C 8.140625 -5.5 7.875 -6.421875 7.34375 -7.171875 C 6.820312 -7.929688 6.101562 -8.3125 5.1875 -8.3125 C 4.269531 -8.3125 3.554688 -8 3.046875 -7.375 C 2.535156 -6.75 2.28125 -5.894531 2.28125 -4.8125 C 2.28125 -3.726562 2.535156 -2.804688 3.046875 -2.046875 C 3.566406 -1.285156 4.289062 -0.90625 5.21875 -0.90625 Z M 5.21875 -0.90625 "/></g></g></g><g fill="#000000" fill-opacity="1"><g transform="translate(103.696688, 27.321037)"><g><path d="M 7.78125 -6.203125 L 7.75 -3.515625 C 7.75 -1.992188 7.875 -0.851562 8.125 -0.09375 C 7.914062 0.0078125 7.660156 0.0625 7.359375 0.0625 C 7.054688 0.0625 6.847656 -0.00390625 6.734375 -0.140625 C 6.617188 -0.285156 6.539062 -0.507812 6.5 -0.8125 C 5.675781 -0.144531 4.828125 0.1875 3.953125 0.1875 C 1.910156 0.1875 0.890625 -0.738281 0.890625 -2.59375 C 0.890625 -3.269531 1.046875 -3.765625 1.359375 -4.078125 C 1.679688 -4.398438 2.117188 -4.644531 2.671875 -4.8125 C 3.671875 -5.070312 4.929688 -5.25 6.453125 -5.34375 C 6.453125 -6.46875 6.3125 -7.242188 6.03125 -7.671875 C 5.757812 -8.097656 5.171875 -8.3125 4.265625 -8.3125 C 3.898438 -8.3125 3.515625 -8.191406 3.109375 -7.953125 C 2.710938 -7.722656 2.414062 -7.382812 2.21875 -6.9375 C 1.613281 -7.050781 1.3125 -7.316406 1.3125 -7.734375 C 1.3125 -8.242188 1.628906 -8.65625 2.265625 -8.96875 C 2.898438 -9.28125 3.71875 -9.4375 4.71875 -9.4375 C 5.707031 -9.4375 6.460938 -9.195312 6.984375 -8.71875 C 7.515625 -8.25 7.78125 -7.410156 7.78125 -6.203125 Z M 6.4375 -4.328125 C 6.050781 -4.285156 5.757812 -4.25 5.5625 -4.21875 C 5.375 -4.195312 5.117188 -4.164062 4.796875 -4.125 C 4.472656 -4.09375 4.226562 -4.054688 4.0625 -4.015625 C 3.90625 -3.972656 3.710938 -3.914062 3.484375 -3.84375 C 3.253906 -3.78125 3.082031 -3.707031 2.96875 -3.625 C 2.851562 -3.550781 2.738281 -3.46875 2.625 -3.375 C 2.394531 -3.1875 2.28125 -2.925781 2.28125 -2.59375 C 2.28125 -2 2.453125 -1.5625 2.796875 -1.28125 C 3.140625 -1 3.578125 -0.859375 4.109375 -0.859375 C 5.003906 -0.859375 5.765625 -1.15625 6.390625 -1.75 C 6.378906 -1.9375 6.375 -2.273438 6.375 -2.765625 C 6.375 -3.242188 6.394531 -3.765625 6.4375 -4.328125 Z M 6.4375 -4.328125 "/></g></g></g><g fill="#000000" fill-opacity="1"><g transform="translate(111.952544, 27.321037)"><g><path d="M 8.859375 -14 L 8.671875 -4.4375 C 8.671875 -2.21875 8.800781 -0.769531 9.0625 -0.09375 C 8.84375 0.0078125 8.585938 0.0625 8.296875 0.0625 C 7.742188 0.0625 7.453125 -0.269531 7.421875 -0.9375 C 6.628906 -0.1875 5.734375 0.1875 4.734375 0.1875 C 3.734375 0.1875 2.84375 -0.257812 2.0625 -1.15625 C 1.28125 -2.0625 0.890625 -3.222656 0.890625 -4.640625 C 0.890625 -6.054688 1.296875 -7.207031 2.109375 -8.09375 C 2.921875 -8.988281 3.90625 -9.4375 5.0625 -9.4375 C 5.851562 -9.4375 6.625 -9.207031 7.375 -8.75 C 7.394531 -9.601562 7.40625 -10.566406 7.40625 -11.640625 C 7.40625 -12.722656 7.351562 -13.742188 7.25 -14.703125 C 7.457031 -14.742188 7.695312 -14.765625 7.96875 -14.765625 C 8.5625 -14.765625 8.859375 -14.507812 8.859375 -14 Z M 7.328125 -7.734375 C 6.628906 -8.117188 5.945312 -8.3125 5.28125 -8.3125 C 4.351562 -8.3125 3.617188 -8 3.078125 -7.375 C 2.546875 -6.75 2.28125 -5.882812 2.28125 -4.78125 C 2.28125 -3.675781 2.554688 -2.742188 3.109375 -1.984375 C 3.671875 -1.234375 4.347656 -0.859375 5.140625 -0.859375 C 5.921875 -0.859375 6.664062 -1.234375 7.375 -1.984375 C 7.34375 -5.398438 7.328125 -7.316406 7.328125 -7.734375 Z M 7.328125 -7.734375 "/></g></g></g><g fill="#99cc33" fill-opacity="1"><g transform="translate(121.256325, 27.321037)"><g><path d="M 12.40625 -0.953125 L 12.53125 -6.09375 C 12.53125 -6.84375 12.375 -7.398438 12.0625 -7.765625 C 11.75 -8.128906 11.34375 -8.3125 10.84375 -8.3125 C 10.070312 -8.3125 9.25 -7.960938 8.375 -7.265625 C 8.40625 -5.460938 8.421875 -4.03125 8.421875 -2.96875 C 8.421875 -1.90625 8.460938 -0.921875 8.546875 -0.015625 C 8.328125 0.015625 8.097656 0.03125 7.859375 0.03125 C 7.265625 0.03125 6.96875 -0.21875 6.96875 -0.71875 C 6.96875 -0.769531 6.972656 -1.035156 6.984375 -1.515625 C 7.035156 -2.648438 7.0625 -4.175781 7.0625 -6.09375 C 7.0625 -7.570312 6.484375 -8.3125 5.328125 -8.3125 C 4.566406 -8.3125 3.75 -7.945312 2.875 -7.21875 C 2.90625 -5.425781 2.921875 -4.003906 2.921875 -2.953125 C 2.921875 -1.898438 2.957031 -0.921875 3.03125 -0.015625 C 2.820312 0.015625 2.597656 0.03125 2.359375 0.03125 C 1.765625 0.03125 1.46875 -0.21875 1.46875 -0.71875 C 1.46875 -0.769531 1.484375 -1.253906 1.515625 -2.171875 C 1.554688 -3.097656 1.578125 -4.015625 1.578125 -4.921875 C 1.578125 -7.097656 1.445312 -8.503906 1.1875 -9.140625 C 1.457031 -9.242188 1.695312 -9.296875 1.90625 -9.296875 C 2.519531 -9.296875 2.828125 -8.960938 2.828125 -8.296875 C 3.234375 -8.628906 3.71875 -8.898438 4.28125 -9.109375 C 4.851562 -9.328125 5.40625 -9.4375 5.9375 -9.4375 C 7.019531 -9.4375 7.753906 -9.003906 8.140625 -8.140625 C 8.492188 -8.492188 8.992188 -8.796875 9.640625 -9.046875 C 10.285156 -9.304688 10.925781 -9.4375 11.5625 -9.4375 C 12.207031 -9.4375 12.753906 -9.210938 13.203125 -8.765625 C 13.660156 -8.328125 13.890625 -7.613281 13.890625 -6.625 L 13.8125 -3.09375 C 13.8125 -1.875 13.925781 -0.875 14.15625 -0.09375 C 13.894531 0.0078125 13.613281 0.0625 13.3125 0.0625 C 13.019531 0.0625 12.796875 -0.0078125 12.640625 -0.15625 C 12.484375 -0.3125 12.40625 -0.578125 12.40625 -0.953125 Z M 12.40625 -0.953125 "/></g></g></g><g fill="#99cc33" fill-opacity="1"><g transform="translate(135.648296, 27.321037)"><g><path d="M 7.78125 -6.203125 L 7.75 -3.515625 C 7.75 -1.992188 7.875 -0.851562 8.125 -0.09375 C 7.914062 0.0078125 7.660156 0.0625 7.359375 0.0625 C 7.054688 0.0625 6.847656 -0.00390625 6.734375 -0.140625 C 6.617188 -0.285156 6.539062 -0.507812 6.5 -0.8125 C 5.675781 -0.144531 4.828125 0.1875 3.953125 0.1875 C 1.910156 0.1875 0.890625 -0.738281 0.890625 -2.59375 C 0.890625 -3.269531 1.046875 -3.765625 1.359375 -4.078125 C 1.679688 -4.398438 2.117188 -4.644531 2.671875 -4.8125 C 3.671875 -5.070312 4.929688 -5.25 6.453125 -5.34375 C 6.453125 -6.46875 6.3125 -7.242188 6.03125 -7.671875 C 5.757812 -8.097656 5.171875 -8.3125 4.265625 -8.3125 C 3.898438 -8.3125 3.515625 -8.191406 3.109375 -7.953125 C 2.710938 -7.722656 2.414062 -7.382812 2.21875 -6.9375 C 1.613281 -7.050781 1.3125 -7.316406 1.3125 -7.734375 C 1.3125 -8.242188 1.628906 -8.65625 2.265625 -8.96875 C 2.898438 -9.28125 3.71875 -9.4375 4.71875 -9.4375 C 5.707031 -9.4375 6.460938 -9.195312 6.984375 -8.71875 C 7.515625 -8.25 7.78125 -7.410156 7.78125 -6.203125 Z M 6.4375 -4.328125 C 6.050781 -4.285156 5.757812 -4.25 5.5625 -4.21875 C 5.375 -4.195312 5.117188 -4.164062 4.796875 -4.125 C 4.472656 -4.09375 4.226562 -4.054688 4.0625 -4.015625 C 3.90625 -3.972656 3.710938 -3.914062 3.484375 -3.84375 C 3.253906 -3.78125 3.082031 -3.707031 2.96875 -3.625 C 2.851562 -3.550781 2.738281 -3.46875 2.625 -3.375 C 2.394531 -3.1875 2.28125 -2.925781 2.28125 -2.59375 C 2.28125 -2 2.453125 -1.5625 2.796875 -1.28125 C 3.140625 -1 3.578125 -0.859375 4.109375 -0.859375 C 5.003906 -0.859375 5.765625 -1.15625 6.390625 -1.75 C 6.378906 -1.9375 6.375 -2.273438 6.375 -2.765625 C 6.375 -3.242188 6.394531 -3.765625 6.4375 -4.328125 Z M 6.4375 -4.328125 "/></g></g></g><g fill="#99cc33" fill-opacity="1"><g transform="translate(143.904152, 27.321037)"><g><path d="M 1.515625 3.890625 L 1.578125 -4.953125 C 1.578125 -7.046875 1.445312 -8.441406 1.1875 -9.140625 C 1.425781 -9.242188 1.6875 -9.296875 1.96875 -9.296875 C 2.539062 -9.296875 2.828125 -8.960938 2.828125 -8.296875 C 3.828125 -9.054688 4.847656 -9.4375 5.890625 -9.4375 C 6.929688 -9.4375 7.769531 -9.082031 8.40625 -8.375 C 9.050781 -7.664062 9.375 -6.585938 9.375 -5.140625 C 9.375 -3.078125 8.742188 -1.554688 7.484375 -0.578125 C 6.828125 -0.0664062 6.070312 0.1875 5.21875 0.1875 C 4.363281 0.1875 3.582031 -0.03125 2.875 -0.46875 C 2.875 1.78125 2.921875 3.171875 3.015625 3.703125 C 3.109375 4.242188 3.195312 4.632812 3.28125 4.875 C 3.039062 4.96875 2.753906 5.015625 2.421875 5.015625 C 2.078125 5.015625 1.835938 4.929688 1.703125 4.765625 C 1.578125 4.597656 1.515625 4.304688 1.515625 3.890625 Z M 2.921875 -1.515625 C 3.523438 -1.109375 4.316406 -0.90625 5.296875 -0.90625 C 5.898438 -0.90625 6.414062 -1.109375 6.84375 -1.515625 C 7.59375 -2.253906 7.96875 -3.363281 7.96875 -4.84375 C 7.96875 -6.03125 7.738281 -6.90625 7.28125 -7.46875 C 6.820312 -8.03125 6.1875 -8.3125 5.375 -8.3125 C 4.570312 -8.3125 3.738281 -7.945312 2.875 -7.21875 C 2.90625 -4.3125 2.921875 -2.410156 2.921875 -1.515625 Z M 2.921875 -1.515625 "/></g></g></g><path fill="#000000" d="M 56.730469 21.382812 C 56.082031 21.570312 55.421875 21.832031 54.757812 22.144531 C 54.730469 22.15625 54.699219 22.171875 54.671875 22.1875 C 54.570312 22.234375 54.472656 22.28125 54.375 22.332031 C 49.109375 24.972656 43.890625 30.507812 39.214844 31.46875 C 36.8125 31.960938 34.59375 31.71875 32.53125 29.921875 C 34.238281 32.765625 37.414062 33.144531 39.777344 32.9375 C 45.675781 32.414062 51.960938 25.75 55.75 23.609375 C 55.980469 23.480469 56.203125 23.363281 56.417969 23.269531 C 60.101562 21.628906 61.832031 24.089844 60.769531 25.203125 C 59.746094 26.28125 58.167969 26.214844 55.820312 24.757812 C 55.175781 25.160156 54.453125 25.683594 53.6875 26.261719 C 55.609375 27.371094 57.414062 28.050781 59.03125 28.007812 C 65.328125 27.839844 63.914062 19.320312 56.730469 21.382812 " fill-opacity="1" fill-rule="nonzero"/><path fill="#99cc33" d="M 45.089844 19.839844 C 46.753906 21.210938 48.40625 22.574219 50.011719 23.78125 C 50.832031 23.226562 51.652344 22.691406 52.472656 22.210938 C 51.144531 21.046875 49.652344 19.601562 47.972656 17.847656 C 39.789062 9.304688 27.371094 13.28125 26.941406 22.757812 C 26.703125 28.039062 30.652344 30.695312 30.652344 30.695312 C 23.394531 21.910156 35.003906 11.507812 45.089844 19.839844 " fill-opacity="1" fill-rule="nonzero"/><path fill="#99cc33" d="M 61.046875 24.160156 C 61.132812 24.535156 61.046875 24.914062 60.769531 25.203125 C 59.746094 26.28125 58.167969 26.214844 55.820312 24.757812 C 55.175781 25.160156 54.453125 25.683594 53.6875 26.261719 C 54.347656 26.644531 54.992188 26.972656 55.621094 27.242188 C 58.355469 27.664062 61.796875 26.714844 61.046875 24.160156 " fill-opacity="1" fill-rule="nonzero"/></svg>