<svg xmlns="http://www.w3.org/2000/svg" xmlns:xlink="http://www.w3.org/1999/xlink" width="300" zoomAndPan="magnify" viewBox="0 0 224.87999 44.999999" height="60" preserveAspectRatio="xMidYMid meet" version="1.0"><defs><g/><clipPath id="ec5b0ad348"><path d="M 16 22 L 62 22 L 62 39.660156 L 16 39.660156 Z M 16 22 " clip-rule="nonzero"/></clipPath></defs><g fill="#000000" fill-opacity="1"><g transform="translate(64.549324, 37.347422)"><g><path d="M 15.421875 -11.296875 C 15.003906 -12.421875 14.597656 -13.59375 14.203125 -14.8125 C 13.804688 -16.03125 13.382812 -17.335938 12.9375 -18.734375 C 12.5 -20.140625 12.195312 -21.109375 12.03125 -21.640625 C 10.71875 -17.492188 9.507812 -14.054688 8.40625 -11.328125 C 10.164062 -11.273438 11.507812 -11.25 12.4375 -11.25 C 13.875 -11.25 14.867188 -11.265625 15.421875 -11.296875 Z M 11.578125 -8.21875 C 10.859375 -8.21875 9.375 -8.242188 7.125 -8.296875 C 5.34375 -3.703125 4.242188 -0.648438 3.828125 0.859375 C 1.378906 0.597656 0.15625 0.0351562 0.15625 -0.828125 C 0.15625 -1.210938 0.738281 -2.769531 1.90625 -5.5 C 3.070312 -8.226562 4.492188 -11.707031 6.171875 -15.9375 C 7.847656 -20.175781 9.171875 -23.929688 10.140625 -27.203125 C 10.691406 -27.285156 11.40625 -27.328125 12.28125 -27.328125 C 13 -27.328125 13.554688 -27.179688 13.953125 -26.890625 C 14.347656 -26.609375 14.695312 -26.023438 15 -25.140625 C 17.113281 -18.546875 18.65625 -14.007812 19.625 -11.53125 C 21.675781 -6.175781 23.222656 -2.46875 24.265625 -0.40625 C 23.222656 0.132812 22.347656 0.40625 21.640625 0.40625 C 20.484375 0.40625 19.679688 0.0351562 19.234375 -0.703125 C 18.910156 -1.546875 18.453125 -2.800781 17.859375 -4.46875 C 17.273438 -6.132812 16.816406 -7.410156 16.484375 -8.296875 C 13.785156 -8.242188 12.148438 -8.21875 11.578125 -8.21875 Z M 11.578125 -8.21875 "/></g></g></g><g fill="#99cc33" fill-opacity="1"><g transform="translate(88.181742, 37.347422)"><g><path d="M 2.59375 -9.515625 L 2.59375 -17.765625 C 2.59375 -21.578125 2.5 -24.738281 2.3125 -27.25 C 3.132812 -27.382812 3.859375 -27.453125 4.484375 -27.453125 C 6.328125 -27.453125 7.25 -26.925781 7.25 -25.875 C 7.25 -25.71875 7.21875 -25.164062 7.15625 -24.21875 C 7.101562 -23.269531 7.050781 -22.085938 7 -20.671875 C 6.945312 -19.265625 6.921875 -17.921875 6.921875 -16.640625 L 6.921875 -8.375 C 6.921875 -4.707031 7.179688 -2.007812 7.703125 -0.28125 C 6.941406 -0.0078125 6.09375 0.125 5.15625 0.125 C 4.132812 0.125 3.4375 -0.0507812 3.0625 -0.40625 C 2.695312 -0.769531 2.515625 -1.378906 2.515625 -2.234375 C 2.515625 -2.660156 2.523438 -3.738281 2.546875 -5.46875 C 2.578125 -7.207031 2.59375 -8.554688 2.59375 -9.515625 Z M 2.59375 -9.515625 "/></g></g></g><path fill="#99cc33" d="M 100.265625 40.472656 L 100.265625 39.722656 L 101.015625 39.722656 L 101.015625 40.472656 M 100.265625 38.972656 L 100.265625 38.222656 L 101.015625 38.222656 L 101.015625 38.972656 M 100.265625 37.472656 L 100.265625 36.722656 L 101.015625 36.722656 L 101.015625 37.472656 M 100.265625 35.972656 L 100.265625 35.226562 L 101.015625 35.226562 L 101.015625 35.972656 M 100.265625 34.476562 L 100.265625 33.726562 L 101.015625 33.726562 L 101.015625 34.476562 M 100.265625 32.976562 L 100.265625 32.226562 L 101.015625 32.226562 L 101.015625 32.976562 M 100.265625 31.476562 L 100.265625 30.726562 L 101.015625 30.726562 L 101.015625 31.476562 M 100.265625 29.976562 L 100.265625 29.226562 L 101.015625 29.226562 L 101.015625 29.976562 M 100.265625 28.476562 L 100.265625 27.730469 L 101.015625 27.730469 L 101.015625 28.476562 M 100.265625 26.980469 L 100.265625 26.230469 L 101.015625 26.230469 L 101.015625 26.980469 M 100.265625 25.480469 L 100.265625 24.730469 L 101.015625 24.730469 L 101.015625 25.480469 M 100.265625 23.980469 L 100.265625 23.230469 L 101.015625 23.230469 L 101.015625 23.980469 M 100.265625 22.480469 L 100.265625 21.730469 L 101.015625 21.730469 L 101.015625 22.480469 M 100.265625 20.980469 L 100.265625 20.234375 L 101.015625 20.234375 L 101.015625 20.980469 M 100.265625 19.484375 L 100.265625 18.734375 L 101.015625 18.734375 L 101.015625 19.484375 M 100.265625 17.984375 L 100.265625 17.234375 L 101.015625 17.234375 L 101.015625 17.984375 M 100.265625 16.484375 L 100.265625 15.734375 L 101.015625 15.734375 L 101.015625 16.484375 M 100.265625 14.984375 L 100.265625 14.234375 L 101.015625 14.234375 L 101.015625 14.984375 M 100.265625 13.484375 L 100.265625 12.738281 L 101.015625 12.738281 L 101.015625 13.484375 M 100.265625 11.988281 L 100.265625 11.238281 L 101.015625 11.238281 L 101.015625 11.988281 M 100.265625 10.488281 L 100.265625 9.738281 L 101.015625 9.738281 L 101.015625 10.488281 M 100.265625 8.988281 L 100.265625 8.238281 L 101.015625 8.238281 L 101.015625 8.988281 M 100.265625 7.488281 L 100.265625 6.738281 L 101.015625 6.738281 L 101.015625 7.488281 M 100.265625 5.992188 L 100.265625 5.242188 L 101.015625 5.242188 L 101.015625 5.992188 " fill-opacity="1" fill-rule="nonzero"/><g fill="#000000" fill-opacity="1"><g transform="translate(104.633426, 33.909184)"><g><path d="M 3.53125 -16.359375 C 4.351562 -16.359375 4.9375 -16.210938 5.28125 -15.921875 C 5.632812 -15.628906 5.8125 -15.160156 5.8125 -14.515625 L 5.8125 -14.109375 C 7.144531 -15.765625 8.4375 -16.59375 9.6875 -16.59375 C 11.007812 -16.59375 11.671875 -16.113281 11.671875 -15.15625 C 11.671875 -14.519531 11.265625 -13.691406 10.453125 -12.671875 C 9.972656 -13.085938 9.429688 -13.296875 8.828125 -13.296875 C 7.671875 -13.296875 6.625 -12.664062 5.6875 -11.40625 C 5.613281 -9.9375 5.578125 -8.453125 5.578125 -6.953125 C 5.578125 -3.953125 5.882812 -1.734375 6.5 -0.296875 C 5.882812 -0.00390625 5.210938 0.140625 4.484375 0.140625 C 3.503906 0.140625 2.84375 -0.078125 2.5 -0.515625 C 2.15625 -0.953125 1.984375 -1.648438 1.984375 -2.609375 C 1.984375 -2.878906 1.992188 -3.65625 2.015625 -4.9375 C 2.046875 -6.21875 2.0625 -7.21875 2.0625 -7.9375 C 2.0625 -11.75 1.953125 -14.503906 1.734375 -16.203125 C 2.398438 -16.304688 3 -16.359375 3.53125 -16.359375 Z M 3.53125 -16.359375 "/></g></g></g><g fill="#000000" fill-opacity="1"><g transform="translate(115.23885, 33.909184)"><g><path d="M 13.453125 -7.703125 C 13.453125 -9.535156 13.070312 -11.0625 12.3125 -12.28125 C 11.550781 -13.5 10.515625 -14.109375 9.203125 -14.109375 C 7.878906 -14.109375 6.851562 -13.601562 6.125 -12.59375 C 5.394531 -11.59375 5.03125 -10.257812 5.03125 -8.59375 C 5.03125 -6.738281 5.398438 -5.207031 6.140625 -4 C 6.878906 -2.789062 7.898438 -2.1875 9.203125 -2.1875 C 10.554688 -2.1875 11.601562 -2.6875 12.34375 -3.6875 C 13.082031 -4.695312 13.453125 -6.035156 13.453125 -7.703125 Z M 9.203125 0.328125 C 6.835938 0.328125 4.925781 -0.4375 3.46875 -1.96875 C 2.019531 -3.507812 1.296875 -5.570312 1.296875 -8.15625 C 1.296875 -10.726562 2.019531 -12.773438 3.46875 -14.296875 C 4.925781 -15.828125 6.835938 -16.59375 9.203125 -16.59375 C 11.597656 -16.59375 13.523438 -15.828125 14.984375 -14.296875 C 16.453125 -12.773438 17.1875 -10.726562 17.1875 -8.15625 C 17.1875 -5.570312 16.453125 -3.507812 14.984375 -1.96875 C 13.523438 -0.4375 11.597656 0.328125 9.203125 0.328125 Z M 9.203125 0.328125 "/></g></g></g><g fill="#000000" fill-opacity="1"><g transform="translate(132.077112, 33.909184)"><g><path d="M 10.375 -4.890625 C 10.375 -5.941406 10.398438 -6.753906 10.453125 -7.328125 C 9.753906 -7.234375 9.25 -7.160156 8.9375 -7.109375 C 8.632812 -7.066406 8.222656 -7 7.703125 -6.90625 C 7.179688 -6.820312 6.800781 -6.722656 6.5625 -6.609375 C 6.320312 -6.492188 6.0625 -6.351562 5.78125 -6.1875 C 5.507812 -6.03125 5.316406 -5.832031 5.203125 -5.59375 C 5.085938 -5.351562 5.03125 -5.078125 5.03125 -4.765625 C 5.03125 -3.847656 5.257812 -3.171875 5.71875 -2.734375 C 6.175781 -2.304688 6.753906 -2.09375 7.453125 -2.09375 C 8.617188 -2.09375 9.617188 -2.523438 10.453125 -3.390625 C 10.398438 -3.679688 10.375 -4.179688 10.375 -4.890625 Z M 10.515625 -9.40625 C 10.515625 -10.1875 10.5 -10.78125 10.46875 -11.1875 C 10.4375 -11.601562 10.34375 -12.070312 10.1875 -12.59375 C 10.039062 -13.125 9.785156 -13.507812 9.421875 -13.75 C 9.066406 -13.988281 8.59375 -14.109375 8 -14.109375 C 7.257812 -14.109375 6.550781 -13.863281 5.875 -13.375 C 5.195312 -12.882812 4.707031 -12.203125 4.40625 -11.328125 C 2.382812 -11.347656 1.375 -11.953125 1.375 -13.140625 C 1.375 -14.117188 2.0625 -14.9375 3.4375 -15.59375 C 4.820312 -16.257812 6.390625 -16.59375 8.140625 -16.59375 C 10.242188 -16.59375 11.78125 -16.160156 12.75 -15.296875 C 13.71875 -14.441406 14.203125 -12.890625 14.203125 -10.640625 C 14.203125 -10.578125 14.191406 -10.039062 14.171875 -9.03125 C 14.148438 -8.03125 14.140625 -7.050781 14.140625 -6.09375 C 14.140625 -3.488281 14.359375 -1.535156 14.796875 -0.234375 C 14.128906 0.015625 13.476562 0.140625 12.84375 0.140625 C 11.5625 0.140625 10.796875 -0.382812 10.546875 -1.4375 C 9.171875 -0.257812 7.628906 0.328125 5.921875 0.328125 C 4.597656 0.328125 3.492188 -0.078125 2.609375 -0.890625 C 1.734375 -1.710938 1.296875 -2.921875 1.296875 -4.515625 C 1.296875 -5.796875 1.566406 -6.742188 2.109375 -7.359375 C 2.660156 -7.984375 3.394531 -8.4375 4.3125 -8.71875 C 5.6875 -9.15625 7.753906 -9.382812 10.515625 -9.40625 Z M 10.515625 -9.40625 "/></g></g></g><g fill="#000000" fill-opacity="1"><g transform="translate(146.793208, 33.909184)"><g><path d="M 9.109375 -2.1875 C 10.179688 -2.1875 11.21875 -2.6875 12.21875 -3.6875 C 12.175781 -7.894531 12.15625 -11.128906 12.15625 -13.390625 C 11.195312 -13.867188 10.238281 -14.109375 9.28125 -14.109375 C 7.976562 -14.109375 6.941406 -13.601562 6.171875 -12.59375 C 5.410156 -11.59375 5.03125 -10.28125 5.03125 -8.65625 C 5.03125 -6.738281 5.421875 -5.179688 6.203125 -3.984375 C 6.992188 -2.785156 7.960938 -2.1875 9.109375 -2.1875 Z M 1.296875 -8.140625 C 1.296875 -10.679688 2 -12.722656 3.40625 -14.265625 C 4.8125 -15.816406 6.519531 -16.59375 8.53125 -16.59375 C 9.851562 -16.59375 11.082031 -16.273438 12.21875 -15.640625 C 12.21875 -19.734375 12.082031 -22.953125 11.8125 -25.296875 C 12.445312 -25.390625 13.0625 -25.4375 13.65625 -25.4375 C 14.414062 -25.4375 15 -25.273438 15.40625 -24.953125 C 15.8125 -24.628906 16.015625 -24.175781 16.015625 -23.59375 C 16.015625 -23.019531 15.960938 -20.9375 15.859375 -17.34375 C 15.765625 -13.75 15.71875 -10.523438 15.71875 -7.671875 C 15.71875 -3.878906 15.929688 -1.398438 16.359375 -0.234375 C 15.796875 -0.015625 15.164062 0.09375 14.46875 0.09375 C 13.207031 0.09375 12.503906 -0.382812 12.359375 -1.34375 C 11.035156 -0.226562 9.628906 0.328125 8.140625 0.328125 C 6.296875 0.328125 4.691406 -0.46875 3.328125 -2.0625 C 1.972656 -3.65625 1.296875 -5.679688 1.296875 -8.140625 Z M 1.296875 -8.140625 "/></g></g></g><g fill="#99cc33" fill-opacity="1"><g transform="translate(163.265407, 33.909184)"><g><path d="M 1.734375 -15.984375 L 1.890625 -16.09375 C 2.503906 -16.269531 3.050781 -16.359375 3.53125 -16.359375 C 4.1875 -16.359375 4.695312 -16.253906 5.0625 -16.046875 C 5.425781 -15.847656 5.65625 -15.394531 5.75 -14.6875 C 7.363281 -15.957031 9.191406 -16.59375 11.234375 -16.59375 C 13.210938 -16.59375 14.582031 -15.863281 15.34375 -14.40625 C 16.9375 -15.863281 18.851562 -16.59375 21.09375 -16.59375 C 22.476562 -16.59375 23.609375 -16.179688 24.484375 -15.359375 C 25.367188 -14.546875 25.8125 -13.226562 25.8125 -11.40625 C 25.8125 -11.332031 25.789062 -10.488281 25.75 -8.875 C 25.71875 -7.269531 25.703125 -6.101562 25.703125 -5.375 C 25.703125 -3.507812 26 -1.816406 26.59375 -0.296875 C 25.894531 -0.00390625 25.25 0.140625 24.65625 0.140625 C 23.71875 0.140625 23.050781 -0.0507812 22.65625 -0.4375 C 22.269531 -0.820312 22.078125 -1.554688 22.078125 -2.640625 C 22.078125 -3.429688 22.097656 -4.785156 22.140625 -6.703125 C 22.191406 -8.617188 22.21875 -9.859375 22.21875 -10.421875 C 22.21875 -11.660156 21.972656 -12.585938 21.484375 -13.203125 C 20.992188 -13.828125 20.347656 -14.140625 19.546875 -14.140625 C 18.316406 -14.140625 17.050781 -13.546875 15.75 -12.359375 C 15.789062 -9.296875 15.8125 -6.96875 15.8125 -5.375 C 15.8125 -3.320312 15.878906 -1.550781 16.015625 -0.0625 C 15.398438 0.0195312 14.84375 0.0625 14.34375 0.0625 C 12.832031 0.0625 12.078125 -0.390625 12.078125 -1.296875 C 12.078125 -1.691406 12.125 -2.828125 12.21875 -4.703125 C 12.3125 -6.585938 12.359375 -8.492188 12.359375 -10.421875 C 12.359375 -11.660156 12.101562 -12.585938 11.59375 -13.203125 C 11.09375 -13.828125 10.445312 -14.140625 9.65625 -14.140625 C 8.394531 -14.140625 7.140625 -13.546875 5.890625 -12.359375 C 5.929688 -9.296875 5.953125 -7.070312 5.953125 -5.6875 C 5.953125 -3.488281 6.023438 -1.613281 6.171875 -0.0625 C 5.546875 0.0195312 4.972656 0.0625 4.453125 0.0625 C 2.960938 0.0625 2.21875 -0.390625 2.21875 -1.296875 C 2.21875 -1.828125 2.242188 -2.847656 2.296875 -4.359375 C 2.359375 -5.878906 2.390625 -7.253906 2.390625 -8.484375 C 2.390625 -12.296875 2.171875 -14.796875 1.734375 -15.984375 Z M 1.734375 -15.984375 "/></g></g></g><g fill="#99cc33" fill-opacity="1"><g transform="translate(189.962597, 33.909184)"><g><path d="M 10.375 -4.890625 C 10.375 -5.941406 10.398438 -6.753906 10.453125 -7.328125 C 9.753906 -7.234375 9.25 -7.160156 8.9375 -7.109375 C 8.632812 -7.066406 8.222656 -7 7.703125 -6.90625 C 7.179688 -6.820312 6.800781 -6.722656 6.5625 -6.609375 C 6.320312 -6.492188 6.0625 -6.351562 5.78125 -6.1875 C 5.507812 -6.03125 5.316406 -5.832031 5.203125 -5.59375 C 5.085938 -5.351562 5.03125 -5.078125 5.03125 -4.765625 C 5.03125 -3.847656 5.257812 -3.171875 5.71875 -2.734375 C 6.175781 -2.304688 6.753906 -2.09375 7.453125 -2.09375 C 8.617188 -2.09375 9.617188 -2.523438 10.453125 -3.390625 C 10.398438 -3.679688 10.375 -4.179688 10.375 -4.890625 Z M 10.515625 -9.40625 C 10.515625 -10.1875 10.5 -10.78125 10.46875 -11.1875 C 10.4375 -11.601562 10.34375 -12.070312 10.1875 -12.59375 C 10.039062 -13.125 9.785156 -13.507812 9.421875 -13.75 C 9.066406 -13.988281 8.59375 -14.109375 8 -14.109375 C 7.257812 -14.109375 6.550781 -13.863281 5.875 -13.375 C 5.195312 -12.882812 4.707031 -12.203125 4.40625 -11.328125 C 2.382812 -11.347656 1.375 -11.953125 1.375 -13.140625 C 1.375 -14.117188 2.0625 -14.9375 3.4375 -15.59375 C 4.820312 -16.257812 6.390625 -16.59375 8.140625 -16.59375 C 10.242188 -16.59375 11.78125 -16.160156 12.75 -15.296875 C 13.71875 -14.441406 14.203125 -12.890625 14.203125 -10.640625 C 14.203125 -10.578125 14.191406 -10.039062 14.171875 -9.03125 C 14.148438 -8.03125 14.140625 -7.050781 14.140625 -6.09375 C 14.140625 -3.488281 14.359375 -1.535156 14.796875 -0.234375 C 14.128906 0.015625 13.476562 0.140625 12.84375 0.140625 C 11.5625 0.140625 10.796875 -0.382812 10.546875 -1.4375 C 9.171875 -0.257812 7.628906 0.328125 5.921875 0.328125 C 4.597656 0.328125 3.492188 -0.078125 2.609375 -0.890625 C 1.734375 -1.710938 1.296875 -2.921875 1.296875 -4.515625 C 1.296875 -5.796875 1.566406 -6.742188 2.109375 -7.359375 C 2.660156 -7.984375 3.394531 -8.4375 4.3125 -8.71875 C 5.6875 -9.15625 7.753906 -9.382812 10.515625 -9.40625 Z M 10.515625 -9.40625 "/></g></g></g><g fill="#99cc33" fill-opacity="1"><g transform="translate(204.678693, 33.909184)"><g><path d="M 9.609375 -14.109375 C 8.335938 -14.109375 7.097656 -13.609375 5.890625 -12.609375 C 5.929688 -6.984375 5.953125 -3.816406 5.953125 -3.109375 C 6.835938 -2.492188 7.957031 -2.1875 9.3125 -2.1875 C 10.175781 -2.1875 10.90625 -2.515625 11.5 -3.171875 C 12.09375 -3.835938 12.507812 -4.632812 12.75 -5.5625 C 12.988281 -6.488281 13.109375 -7.5 13.109375 -8.59375 C 13.109375 -10.488281 12.785156 -11.878906 12.140625 -12.765625 C 11.492188 -13.660156 10.648438 -14.109375 9.609375 -14.109375 Z M 5.78125 -14.578125 C 7.457031 -15.921875 9.15625 -16.59375 10.875 -16.59375 C 12.632812 -16.59375 14.066406 -15.976562 15.171875 -14.75 C 16.285156 -13.519531 16.84375 -11.628906 16.84375 -9.078125 C 16.84375 -6.441406 16.203125 -4.210938 14.921875 -2.390625 C 13.640625 -0.578125 11.800781 0.328125 9.40625 0.328125 C 8.207031 0.328125 7.035156 0.0078125 5.890625 -0.625 C 5.890625 3.988281 6.113281 6.960938 6.5625 8.296875 C 5.882812 8.515625 5.234375 8.625 4.609375 8.625 C 3.710938 8.625 3.101562 8.46875 2.78125 8.15625 C 2.457031 7.851562 2.296875 7.335938 2.296875 6.609375 C 2.296875 4.898438 2.3125 2.242188 2.34375 -1.359375 C 2.375 -4.972656 2.390625 -7.375 2.390625 -8.5625 C 2.390625 -12.28125 2.171875 -14.753906 1.734375 -15.984375 C 2.316406 -16.234375 2.957031 -16.359375 3.65625 -16.359375 C 4.988281 -16.359375 5.695312 -15.765625 5.78125 -14.578125 Z M 5.78125 -14.578125 "/></g></g></g><g clip-path="url(#ec5b0ad348)"><path fill="#000000" d="M 52.070312 22.710938 C 51.128906 22.980469 50.175781 23.359375 49.210938 23.816406 C 49.210938 23.8125 49.210938 23.8125 49.210938 23.8125 C 49.167969 23.832031 49.128906 23.851562 49.085938 23.875 C 48.941406 23.941406 48.796875 24.011719 48.652344 24.085938 C 41.011719 27.914062 33.445312 35.945312 26.664062 37.339844 C 23.175781 38.054688 19.957031 37.703125 16.964844 35.09375 C 19.441406 39.222656 24.046875 39.773438 27.476562 39.472656 C 36.035156 38.710938 45.148438 29.042969 50.648438 25.941406 C 50.984375 25.75 51.308594 25.582031 51.617188 25.445312 C 56.964844 23.066406 59.472656 26.632812 57.933594 28.253906 C 56.449219 29.816406 54.160156 29.71875 50.75 27.605469 C 49.820312 28.1875 48.769531 28.945312 47.660156 29.789062 C 50.445312 31.398438 53.0625 32.382812 55.414062 32.320312 C 64.542969 32.078125 62.496094 19.714844 52.070312 22.710938 " fill-opacity="1" fill-rule="nonzero"/></g><path fill="#99cc33" d="M 35.183594 20.46875 C 37.597656 22.460938 39.992188 24.4375 42.324219 26.1875 C 43.511719 25.382812 44.707031 24.605469 45.898438 23.90625 C 43.96875 22.222656 41.800781 20.125 39.367188 17.578125 C 27.496094 5.183594 9.480469 10.953125 8.855469 24.703125 C 8.507812 32.363281 14.238281 36.21875 14.238281 36.21875 C 3.710938 23.46875 20.554688 8.378906 35.183594 20.46875 " fill-opacity="1" fill-rule="nonzero"/><path fill="#99cc33" d="M 58.335938 26.738281 C 58.460938 27.28125 58.335938 27.832031 57.933594 28.253906 C 56.449219 29.816406 54.160156 29.71875 50.75 27.605469 C 49.820312 28.1875 48.769531 28.945312 47.660156 29.789062 C 48.617188 30.339844 49.550781 30.820312 50.464844 31.207031 C 54.433594 31.820312 59.425781 30.445312 58.335938 26.738281 " fill-opacity="1" fill-rule="nonzero"/></svg>